<mxfile host="app.diagrams.net" modified="2021-04-27T07:54:45.879Z" agent="5.0 (Windows NT 10.0; Win64; x64) AppleWebKit/537.36 (KHTML, like Gecko) Chrome/78.0.3904.116 Safari/537.36" etag="JzleZQEw4_Zm0aQ7IJi6" version="14.6.6" type="github">
  <diagram id="JkVQNy2jZd83Eb68tXxQ" name="第 1 页">
    <mxGraphModel dx="1837" dy="990" grid="1" gridSize="10" guides="1" tooltips="1" connect="1" arrows="1" fold="1" page="1" pageScale="1" pageWidth="1169" pageHeight="827" math="0" shadow="0">
      <root>
        <mxCell id="0" />
        <mxCell id="1" parent="0" />
      </root>
    </mxGraphModel>
  </diagram>
</mxfile>
